<svg xmlns="http://www.w3.org/2000/svg" style="display: none;"><symbol id="conversation" viewBox="0 0 512 512"><title>conversation</title><g> <g> <path d="M181.72,366.814c-0.723-0.206-1.463-0.322-2.208-0.362c10.954-11.513,17.7-27.066,17.7-44.174v-52.611 c0-0.481-0.046-0.95-0.111-1.412c0.066-0.95,0.111-1.906,0.111-2.872v-33.286c0-5.523-4.477-10-10-10h-67.073 c-28.245,0-51.223,22.979-51.223,51.223v48.958c0,17.108,6.745,32.661,17.7,44.174c-0.744,0.04-1.484,0.156-2.206,0.362 C37.153,371.093,0,410.924,0,459.276V502c0,5.523,4.477,10,10,10h246.127c5.523,0,10-4.477,10-10v-42.724 C266.127,410.925,228.976,371.094,181.72,366.814z M88.916,286.001v-12.682c0-17.216,14.007-31.223,31.223-31.223h57.073v23.286 c0,11.723-9.537,21.26-21.26,21.26H88.916V286.001z M88.916,306.642h67.036c7.772,0,15.047-2.162,21.26-5.914v21.549 c0,24.343-19.805,44.148-44.148,44.148c-24.343,0-44.148-19.805-44.148-44.148V306.642z M154.829,386.426l-21.765,21.766 l-21.765-21.766H154.829z M246.128,492L246.128,492H20v-20h41.5c5.523,0,10-4.477,10-10s-4.477-10-10-10H20.365 c3.359-33.716,29.806-60.717,63.255-64.969l42.373,42.373c1.875,1.875,4.419,2.929,7.071,2.929c2.652,0,5.196-1.054,7.071-2.929 l42.373-42.373c35.824,4.553,63.62,35.204,63.62,72.245V492z"/> </g> </g><g> <g> <path d="M427.595,144.718c-0.723-0.206-1.464-0.322-2.21-0.362c10.954-11.513,17.699-27.066,17.699-44.174V47.57 c0-0.481-0.046-0.95-0.111-1.412c0.066-0.95,0.111-1.906,0.111-2.872V10c0-5.523-4.477-10-10-10h-67.073 c-28.245,0-51.223,22.979-51.223,51.223v48.958c0,17.108,6.745,32.661,17.699,44.174c-0.745,0.04-1.487,0.156-2.21,0.362 c-47.255,4.281-84.405,44.112-84.405,92.462v42.723c0,5.523,4.477,10,10,10h80.46c5.523,0,10-4.477,10-10s-4.477-10-10-10h-70.46 V237.18c0-37.041,27.795-67.692,63.619-72.245l42.373,42.373c1.953,1.953,4.512,2.929,7.071,2.929s5.119-0.976,7.071-2.929 l42.373-42.373C464.205,169.489,492,200.139,492,237.18v32.723h-73.667c-5.523,0-10,4.477-10,10s4.477,10,10,10H502 c5.523,0,10-4.477,10-10V237.18C512,188.83,474.849,148.999,427.595,144.718z M378.937,186.095l-21.765-21.765h43.53 L378.937,186.095z M423.085,100.181c0,24.343-19.805,44.148-44.148,44.148s-44.148-19.804-44.148-44.147V84.546h67.036 c7.772,0,15.047-2.163,21.26-5.914V100.181z M423.085,43.286c0,11.723-9.537,21.26-21.26,21.26h-67.036v-0.641V51.223 c0-17.216,14.007-31.223,31.223-31.223h57.073V43.286z"/> </g> </g><g> <g> <path d="M386.01,272.83c-1.86-1.86-4.44-2.93-7.07-2.93c-2.64,0-5.21,1.07-7.07,2.93c-1.87,1.86-2.93,4.44-2.93,7.07 c0,2.64,1.06,5.21,2.93,7.07c1.86,1.87,4.43,2.93,7.07,2.93c2.63,0,5.21-1.06,7.07-2.93c1.86-1.86,2.93-4.43,2.93-7.07 C388.94,277.27,387.87,274.69,386.01,272.83z"/> </g> </g><g> <g> <path d="M267.405,139.929l-41.821-41.821V50c0-27.57-22.43-50-50-50H50C22.43,0,0,22.43,0,50v88c0,27.57,22.43,50,50,50h125.583 c20.674,0,38.702-12.407,46.266-31h38.484c4.044,0,7.691-2.437,9.239-6.173C271.12,147.091,270.264,142.789,267.405,139.929z M214.554,137c-4.659,0-8.701,3.217-9.746,7.758C201.66,158.442,189.643,168,175.583,168H50c-16.542,0-30-13.458-30-30V50 c0-16.542,13.458-30,30-30h125.583c16.542,0,30,13.458,30,30v52.25c0,2.652,1.054,5.196,2.929,7.071L236.191,137H214.554z"/> </g> </g><g> <g> <path d="M462,324H336.417c-20.674,0-38.702,12.407-46.266,31h-38.484c-4.044,0-7.691,2.437-9.239,6.173 c-1.548,3.736-0.692,8.038,2.167,10.898l41.821,41.821V462c0,27.57,22.43,50,50,50H462c27.57,0,50-22.43,50-50v-88 C512,346.43,489.57,324,462,324z M492,462c0,16.542-13.458,30-30,30H336.417c-16.542,0-30-13.458-30-30v-52.25 c0-2.652-1.054-5.196-2.929-7.071L275.809,375h21.637c4.659,0,8.701-3.217,9.746-7.758C310.34,353.558,322.357,344,336.417,344 H462c16.542,0,30,13.458,30,30V462z"/> </g> </g><g> <g> <path d="M444.156,391.392c-3.904-3.905-10.236-3.905-14.141,0l-26.583,26.583l-12.361-12.361c-3.905-3.905-10.237-3.905-14.143,0 c-3.905,3.905-3.905,10.237,0,14.143l19.432,19.432c1.953,1.953,4.512,2.929,7.071,2.929s5.119-0.976,7.071-2.929l33.654-33.654 C448.061,401.63,448.061,395.298,444.156,391.392z"/> </g> </g><g> <g> <path d="M158.253,66.268c-1.182-17.147-15.004-30.969-32.151-32.151c-9.723-0.669-18.991,2.611-26.091,9.239 c-7.001,6.535-11.017,15.775-11.017,25.349c0.001,5.524,4.478,10.001,10.001,10.001s10-4.477,10-10 c0-4.111,1.656-7.921,4.664-10.729c3.003-2.804,6.938-4.196,11.069-3.906c7.239,0.499,13.074,6.334,13.573,13.573 c0.505,7.319-4.293,13.787-11.408,15.379c-7.788,1.742-13.227,8.513-13.227,16.465v5.335c0,5.523,4.477,10,10,10s10-4.477,10-10 v-2.91C149.16,97.291,159.385,82.684,158.253,66.268z"/> </g> </g><g> <g> <path d="M130.74,136.02c-1.86-1.86-4.44-2.93-7.07-2.93c-2.64,0-5.21,1.07-7.07,2.93c-1.87,1.86-2.93,4.44-2.93,7.07 s1.06,5.21,2.93,7.07c1.86,1.86,4.43,2.93,7.07,2.93c2.63,0,5.21-1.07,7.07-2.93c1.86-1.86,2.93-4.44,2.93-7.07 S132.6,137.88,130.74,136.02z"/> </g> </g><g> <g> <path d="M108.57,454.93c-1.86-1.86-4.44-2.93-7.07-2.93s-5.21,1.07-7.07,2.93s-2.93,4.44-2.93,7.07s1.07,5.21,2.93,7.07 c1.86,1.86,4.44,2.93,7.07,2.93s5.21-1.07,7.07-2.93s2.93-4.44,2.93-7.07S110.43,456.79,108.57,454.93z"/> </g> </g></symbol><symbol id="shipped" viewBox="0 0 512 512"><title>shipped</title><g> <g> <path d="M476.158,231.363l-13.259-53.035c3.625-0.77,6.345-3.986,6.345-7.839v-8.551c0-18.566-15.105-33.67-33.67-33.67h-60.392 V110.63c0-9.136-7.432-16.568-16.568-16.568H50.772c-9.136,0-16.568,7.432-16.568,16.568V256c0,4.427,3.589,8.017,8.017,8.017 c4.427,0,8.017-3.589,8.017-8.017V110.63c0-0.295,0.239-0.534,0.534-0.534h307.841c0.295,0,0.534,0.239,0.534,0.534v145.372 c0,4.427,3.589,8.017,8.017,8.017c4.427,0,8.017-3.589,8.017-8.017v-9.088h94.569c0.008,0,0.014,0.002,0.021,0.002 c0.008,0,0.015-0.001,0.022-0.001c11.637,0.008,21.518,7.646,24.912,18.171h-24.928c-4.427,0-8.017,3.589-8.017,8.017v17.102 c0,13.851,11.268,25.119,25.119,25.119h9.086v35.273h-20.962c-6.886-19.883-25.787-34.205-47.982-34.205 s-41.097,14.322-47.982,34.205h-3.86v-60.393c0-4.427-3.589-8.017-8.017-8.017c-4.427,0-8.017,3.589-8.017,8.017v60.391H192.817 c-6.886-19.883-25.787-34.205-47.982-34.205s-41.097,14.322-47.982,34.205H50.772c-0.295,0-0.534-0.239-0.534-0.534v-17.637 h34.739c4.427,0,8.017-3.589,8.017-8.017s-3.589-8.017-8.017-8.017H8.017c-4.427,0-8.017,3.589-8.017,8.017 s3.589,8.017,8.017,8.017h26.188v17.637c0,9.136,7.432,16.568,16.568,16.568h43.304c-0.002,0.178-0.014,0.355-0.014,0.534 c0,27.996,22.777,50.772,50.772,50.772s50.772-22.776,50.772-50.772c0-0.18-0.012-0.356-0.014-0.534h180.67 c-0.002,0.178-0.014,0.355-0.014,0.534c0,27.996,22.777,50.772,50.772,50.772c27.995,0,50.772-22.776,50.772-50.772 c0-0.18-0.012-0.356-0.014-0.534h26.203c4.427,0,8.017-3.589,8.017-8.017v-85.511C512,251.989,496.423,234.448,476.158,231.363z M375.182,144.301h60.392c9.725,0,17.637,7.912,17.637,17.637v0.534h-78.029V144.301z M375.182,230.881v-52.376h71.235 l13.094,52.376H375.182z M144.835,401.904c-19.155,0-34.739-15.583-34.739-34.739s15.584-34.739,34.739-34.739 c19.155,0,34.739,15.583,34.739,34.739S163.99,401.904,144.835,401.904z M427.023,401.904c-19.155,0-34.739-15.583-34.739-34.739 s15.584-34.739,34.739-34.739c19.155,0,34.739,15.583,34.739,34.739S446.178,401.904,427.023,401.904z M495.967,299.29h-9.086 c-5.01,0-9.086-4.076-9.086-9.086v-9.086h18.171V299.29z"/> </g> </g><g> <g> <path d="M144.835,350.597c-9.136,0-16.568,7.432-16.568,16.568c0,9.136,7.432,16.568,16.568,16.568 c9.136,0,16.568-7.432,16.568-16.568C161.403,358.029,153.971,350.597,144.835,350.597z"/> </g> </g><g> <g> <path d="M427.023,350.597c-9.136,0-16.568,7.432-16.568,16.568c0,9.136,7.432,16.568,16.568,16.568 c9.136,0,16.568-7.432,16.568-16.568C443.591,358.029,436.159,350.597,427.023,350.597z"/> </g> </g><g> <g> <path d="M332.96,316.393H213.244c-4.427,0-8.017,3.589-8.017,8.017s3.589,8.017,8.017,8.017H332.96 c4.427,0,8.017-3.589,8.017-8.017S337.388,316.393,332.96,316.393z"/> </g> </g><g> <g> <path d="M127.733,282.188H25.119c-4.427,0-8.017,3.589-8.017,8.017s3.589,8.017,8.017,8.017h102.614 c4.427,0,8.017-3.589,8.017-8.017S132.16,282.188,127.733,282.188z"/> </g> </g><g> <g> <path d="M278.771,173.37c-3.13-3.13-8.207-3.13-11.337,0.001l-71.292,71.291l-37.087-37.087c-3.131-3.131-8.207-3.131-11.337,0 c-3.131,3.131-3.131,8.206,0,11.337l42.756,42.756c1.565,1.566,3.617,2.348,5.668,2.348s4.104-0.782,5.668-2.348l76.96-76.96 C281.901,181.576,281.901,176.501,278.771,173.37z"/> </g> </g></symbol><symbol id="payment" viewBox="0 0 60 60"><title>payment</title><path id="Shape" d="m14 15c1.6568542 0 3-1.3431458 3-3v-4c0-1.65685425-1.3431458-3-3-3h-6c-1.65685425 0-3 1.34314575-3 3v4c0 1.6568542 1.34314575 3 3 3zm0-2h-3v-2h4v1c0 .5522847-.4477153 1-1 1zm1-5v1h-4v-2h3c.5522847 0 1 .44771525 1 1zm-7-1h1v2h-2v-1c0-.55228475.44771525-1 1-1zm-1 5v-1h2v2h-1c-.55228475 0-1-.4477153-1-1z"/><path id="Shape" d="m8 21c-.55228475 0-1 .4477153-1 1s.44771525 1 1 1h6c.5522847 0 1-.4477153 1-1s-.4477153-1-1-1z"/><path id="Shape" d="m19 21h-1c-.5522847 0-1 .4477153-1 1s.4477153 1 1 1h1c.5522847 0 1-.4477153 1-1s-.4477153-1-1-1z"/><path id="Shape" d="m10 27h-2c-.55228475 0-1 .4477153-1 1s.44771525 1 1 1h2c.5522847 0 1-.4477153 1-1s-.4477153-1-1-1z"/><path id="Shape" d="m19 27h-4c-.5522847 0-1 .4477153-1 1s.4477153 1 1 1h4c.5522847 0 1-.4477153 1-1s-.4477153-1-1-1z"/><path id="Shape" d="m37 14c1.1531181-.003719 2.247792-.5079987 3-1.382 1.093225 1.2628661 2.8560646 1.7134762 4.4212104 1.1301323 1.5651459-.5833438 2.6030376-2.0778115 2.6030376-3.7481323 0-1.67032082-1.0378917-3.16478849-2.6030376-3.74813234-1.5651458-.58334385-3.3279854-.13273376-4.4212104 1.13013234-1.2110928-1.38665941-3.2134336-1.76522309-4.8471665-.91640804-1.6337329.84881506-2.4750835 2.70483451-2.0366995 4.49295914.438384 1.7881246 2.0427901 3.0445323 3.883866 3.0414489zm6-6c1.1045695 0 2 .8954305 2 2s-.8954305 2-2 2-2-.8954305-2-2 .8954305-2 2-2zm-6 0c1.1045695 0 2 .8954305 2 2s-.8954305 2-2 2-2-.8954305-2-2 .8954305-2 2-2z"/><path id="Shape" d="m57.148 20.991c-1.7300765-.0817957-3.4512215-.2974403-5.148-.645v-13.346c-.0044086-3.86416566-3.1358343-6.99559136-7-7h-38c-3.86416566.00440864-6.99559136 3.13583434-7 7v21c.00440864 3.8641657 3.13583434 6.9955914 7 7h15v1.916c-.0000195.1442243.0103406.288263.031.431.253 1.759 2.911 17.34 18 22.493.6294103.213359 1.3115897.213359 1.941 0 15.088-5.153 17.746-20.734 18-22.5.0199748-.1414565.0299994-.2841402.03-.427v-12.913c.006716-1.6049508-1.2509362-2.9309058-2.854-3.009zm-50.148 12.009c-2.76005315-.0033061-4.99669388-2.2399468-5-5v-21c.00330612-2.76005315 2.23994685-4.99669388 5-5h38c2.7600532.00330612 4.9966939 2.23994685 5 5v12.856c-2.5755804-.6836758-4.9891982-1.8734874-7.1-3.5-1.1056211-.8969718-2.6883789-.8969718-3.794 0-4.565 3.666-10.888 4.476-14.251 4.633-1.6042346.0776099-2.8627653 1.4049079-2.855 3.011v9zm51 3.916c-.0002411.0488292-.0035811.0975939-.01.146-.236 1.635-2.705 16.117-16.667 20.885-.2098198.0710204-.4371802.0710204-.647 0-13.961-4.768-16.43-19.247-16.665-20.882-.0071437-.0493486-.0108194-.0991373-.011-.149v-12.916c-.0067023-.535741.4100258-.9815739.945-1.011 3.606-.168 10.4-1.05 15.41-5.072.3744241-.3091771.9155759-.3091771 1.29 0 5.007 4.022 11.8 4.9 15.41 5.072.5349742.0294261.9517023.475259.945 1.011z"/><path id="Shape" d="m55.1 24.838c-4.8107101-.3668207-9.4575988-1.9100603-13.532-4.494-.3405685-.2332121-.7894315-.2332121-1.13 0-4.0761633 2.5848691-8.7252246 4.1281459-13.538 4.494-.510991.0513565-.9000065.4814347-.9.995v10.891c.0001944.0505262.0038697.100979.011.151.361 2.361 2.758 14.366 14.637 18.833.2257131.0843337.4742869.0843337.7 0 12.152-4.566 14.422-17.385 14.641-18.832.00718-.0493447.0108558-.0991359.011-.149v-10.894c.0000065-.5135653-.389009-.9436435-.9-.995zm-1.1 11.811c-.257 1.617-2.407 12.842-13 17.051-10.581-4.2-12.741-15.434-13-17.054v-9.916c4.6023984-.4756182 9.0421858-1.9653377 13-4.362 3.9578142 2.3966623 8.3976016 3.8863818 13 4.362z"/><path id="Shape" d="m35.707 37.293c-.3923789-.3789722-1.0160848-.3735524-1.4018186.0121814s-.3911536 1.0094397-.0121814 1.4018186l4 4c.1874927.1875494.4418052.2929434.707.293h.05c.2822038-.0142333.5452141-.1471915.724-.366l9-11c.3393297-.4281437.2722611-1.0493712-.1506305-1.3952244-.4228915-.3458532-1.0450741-.2883157-1.3973695.1292244l-8.3 10.145z"/></symbol><symbol id="free-delivery" viewBox="0 0 512 512"><title>free-delivery</title><g> <g> <path d="M476.158,286.938l-13.259-53.035c3.625-0.77,6.345-3.986,6.345-7.839v-8.551c0-18.566-15.105-33.67-33.67-33.67h-60.392 v-17.637c0-9.136-7.432-16.568-16.568-16.568H246.32l68.24-27.296c4.111-1.644,6.11-6.31,4.466-10.421 c-1.644-4.11-6.307-6.111-10.421-4.466l-55.874,22.349c17.026-10.924,33.871-22.947,40.284-31.355 c12.485-16.369,9.323-39.843-7.046-52.328c-16.369-12.486-39.843-9.323-52.328,7.046c-9.122,11.962-21.158,45.573-28.948,69.258 c-7.79-23.683-19.826-57.296-28.948-69.258c-12.484-16.369-35.959-19.53-52.328-7.046c-16.369,12.484-19.53,35.958-7.046,52.328 c6.413,8.409,23.257,20.431,40.284,31.355l-55.874-22.349c-4.113-1.647-8.777,0.355-10.421,4.466 c-1.645,4.111,0.355,8.777,4.466,10.421l68.24,27.296H50.772c-9.136,0-16.568,7.432-16.568,16.568v145.37 c0,4.427,3.589,8.017,8.017,8.017c4.427,0,8.017-3.589,8.017-8.017v-145.37c0-0.295,0.239-0.534,0.534-0.534h307.841 c0.295,0,0.534,0.239,0.534,0.534v145.372c0,4.427,3.589,8.017,8.017,8.017c4.427,0,8.017-3.589,8.017-8.017v-9.088h94.566 c0.009,0,0.016,0.002,0.025,0.002s0.017-0.001,0.026-0.001c11.636,0.009,21.516,7.647,24.908,18.171h-24.928 c-4.427,0-8.017,3.589-8.017,8.017v17.102c0,13.851,11.268,25.119,25.119,25.119h9.086v35.273h-20.962 c-6.886-19.882-25.787-34.205-47.982-34.205s-41.097,14.322-47.982,34.205h-3.86V345.78c0-4.427-3.589-8.017-8.017-8.017 c-4.427,0-8.017,3.589-8.017,8.017v60.392H192.817c-6.886-19.882-25.787-34.205-47.982-34.205s-41.097,14.322-47.982,34.205 H50.772c-0.295,0-0.534-0.239-0.534-0.534v-17.637h34.739c4.427,0,8.017-3.589,8.017-8.017s-3.589-8.017-8.017-8.017H8.017 c-4.427,0-8.017,3.589-8.017,8.017s3.589,8.017,8.017,8.017h26.188v17.637c0,9.136,7.432,16.568,16.568,16.568h43.304 c-0.002,0.178-0.014,0.355-0.014,0.534c0,27.995,22.777,50.772,50.772,50.772s50.772-22.777,50.772-50.772 c0-0.18-0.012-0.356-0.014-0.534h180.67c-0.002,0.178-0.014,0.355-0.014,0.534c0,27.995,22.777,50.772,50.772,50.772 c27.995,0,50.772-22.777,50.772-50.772c0-0.18-0.012-0.356-0.014-0.534h26.203c4.427,0,8.017-3.589,8.017-8.017v-85.511 C512,307.564,496.423,290.022,476.158,286.938z M172.9,121.059c-31.623-19.651-41.003-28.692-43.78-32.334 c-7.123-9.339-5.319-22.732,4.021-29.855c3.85-2.936,8.388-4.355,12.893-4.355c6.422,0,12.776,2.886,16.963,8.376 c7.755,10.168,19.9,44.391,27.918,69.052C185.504,128.757,179.284,125.028,172.9,121.059z M218.473,131.942 c8.018-24.66,20.163-58.882,27.917-69.052c7.123-9.339,20.516-11.142,29.855-4.02c9.34,7.123,11.143,20.516,4.021,29.855 c-2.777,3.641-12.157,12.683-43.778,32.333C230.105,125.026,223.885,128.756,218.473,131.942z M375.182,199.875h60.392 c9.725,0,17.637,7.912,17.637,17.637v0.534h-78.029V199.875z M375.182,286.456V234.08h71.235l13.094,52.376H375.182z M144.835,457.479c-19.155,0-34.739-15.584-34.739-34.739s15.584-34.739,34.739-34.739c19.155,0,34.739,15.584,34.739,34.739 S163.99,457.479,144.835,457.479z M427.023,457.479c-19.155,0-34.739-15.584-34.739-34.739s15.584-34.739,34.739-34.739 c19.155,0,34.739,15.584,34.739,34.739S446.178,457.479,427.023,457.479z M495.967,354.865h-9.086 c-5.01,0-9.086-4.076-9.086-9.086v-9.086h18.171V354.865z"/> </g> </g><g> <g> <path d="M144.835,406.172c-9.136,0-16.568,7.432-16.568,16.568s7.432,16.568,16.568,16.568c9.136,0,16.568-7.432,16.568-16.568 S153.971,406.172,144.835,406.172z"/> </g> </g><g> <g> <path d="M427.023,406.172c-9.136,0-16.568,7.432-16.568,16.568s7.432,16.568,16.568,16.568c9.136,0,16.568-7.432,16.568-16.568 S436.159,406.172,427.023,406.172z"/> </g> </g><g> <g> <path d="M332.96,371.967H213.244c-4.427,0-8.017,3.589-8.017,8.017s3.589,8.017,8.017,8.017H332.96 c4.427,0,8.017-3.589,8.017-8.017S337.388,371.967,332.96,371.967z"/> </g> </g><g> <g> <path d="M127.733,337.763H25.119c-4.427,0-8.017,3.589-8.017,8.017s3.589,8.017,8.017,8.017h102.614 c4.427,0,8.017-3.589,8.017-8.017S132.16,337.763,127.733,337.763z"/> </g> </g><g> <g> <path d="M127.733,218.046H93.528c-4.427,0-8.017,3.589-8.017,8.017v68.409c0,4.427,3.589,8.017,8.017,8.017 s8.017-3.589,8.017-8.017v-26.188h17.637c4.427,0,8.017-3.589,8.017-8.017s-3.589-8.017-8.017-8.017h-17.637V234.08h26.188 c4.427,0,8.017-3.589,8.017-8.017C135.749,221.636,132.16,218.046,127.733,218.046z"/> </g> </g><g> <g> <path d="M190.822,272.043c8.023-5.255,13.337-14.317,13.337-24.602c0-16.209-13.186-29.395-29.395-29.395h-21.378 c-4.427,0-8.017,3.589-8.017,8.017v68.409c0,4.427,3.589,8.017,8.017,8.017s8.017-3.589,8.017-8.017v-17.637h13.346l14.722,22.083 c1.545,2.317,4.086,3.571,6.677,3.571c1.529,0,3.073-0.436,4.439-1.348c3.685-2.455,4.68-7.433,2.223-11.116L190.822,272.043z M174.764,260.802h-13.361V234.08h13.361c7.368,0,13.361,5.993,13.361,13.361C188.125,254.809,182.132,260.802,174.764,260.802z"/> </g> </g><g> <g> <path d="M256,286.456h-26.188v-18.198c0.177,0.012,0.354,0.027,0.534,0.027h17.102c4.427,0,8.017-3.589,8.017-8.017 s-3.589-8.017-8.017-8.017h-17.102c-0.181,0-0.357,0.015-0.534,0.027V234.08H256c4.427,0,8.017-3.589,8.017-8.017 c0-4.427-3.589-8.017-8.017-8.017h-34.205c-4.427,0-8.017,3.589-8.017,8.017v68.409c0,4.427,3.589,8.017,8.017,8.017H256 c4.427,0,8.017-3.589,8.017-8.017S260.427,286.456,256,286.456z"/> </g> </g><g> <g> <path d="M315.858,286.456H289.67v-18.171h9.086c4.427,0,8.017-3.589,8.017-8.017s-3.589-8.017-8.017-8.017h-9.086V234.08h26.188 c4.427,0,8.017-3.589,8.017-8.017c0-4.427-3.589-8.017-8.017-8.017h-34.205c-4.427,0-8.017,3.589-8.017,8.017v68.409 c0,4.427,3.589,8.017,8.017,8.017h34.205c4.427,0,8.017-3.589,8.017-8.017S320.285,286.456,315.858,286.456z"/> </g> </g></symbol></svg>