<svg xmlns="http://www.w3.org/2000/svg" style="display: none;"><symbol id="security" viewBox="0 0 512 512"><title>security</title><path d="m256 0-215 42.968v294.112c0 63.104 37.629 113.47 108.817 145.654 51.614 23.334 102.477 28.878 104.617 29.102l1.566.164 1.567-.164c2.14-.224 53.003-5.768 104.617-29.102 71.188-32.185 108.816-82.551 108.816-145.654v-294.112zm184.996 337.08c0 50.991-30.471 90.713-90.567 118.063-42.46 19.325-85.769 25.586-94.437 26.691-8.643-1.092-51.391-7.237-93.807-26.412-60.503-27.354-91.181-67.169-91.181-118.342v-269.536l184.996-36.973 184.996 36.973z"/><path d="m184.511 172.981c0 21.951 10.151 41.599 26.05 54.588-21.891 14.674-36.328 39.628-36.328 67.888v92.34h163.533v-92.34c0-28.26-14.436-53.214-36.328-67.888 15.899-12.989 26.05-32.637 26.05-54.588 0-39.017-32.07-70.76-71.489-70.76s-71.488 31.743-71.488 70.76zm123.251 122.477v62.362h-103.524v-62.362c0-28.517 23.22-51.717 51.762-51.717s51.762 23.2 51.762 51.717zm-10.277-122.477c0 22.487-18.61 40.782-41.484 40.782s-41.484-18.295-41.484-40.782 18.61-40.782 41.484-40.782 41.484 18.295 41.484 40.782z"/><path d="m240.999 285.792h30.002v29.978h-30.002z"/></symbol><symbol id="diamond" viewBox="0 0 513.398 513.398"><title>diamond</title><path d="m414.315 19.258c-16.336 0-297.195 0-315.203 0l-99.112 135.152 257.764 339.73 255.635-339.769zm-273.4 150 72.622 216.961-164.615-216.961zm31.637 0h168.412l-83.628 253.297zm200.006 0h92.098l-164.115 218.127zm26.553-120 66 90h-92.533l-29.531-90zm-87.638 0 29.531 90h-168.582l29.531-90zm-197.159 0h56.064l-29.531 90h-92.533z"/></symbol><symbol id="sew" viewBox="0 0 480 480.00086"><title>sew</title><path d="m423.9375 31.585938c.828125-12.753907-6.605469-24.605469-18.453125-29.410157-11.84375-4.804687-25.433594-1.480469-33.726563 8.246094-.28125.320313-.53125.664063-.75 1.03125l-7.628906 12.546875h-219.378906c-17.671875 0-32 14.328125-32 32 0 17.675781 14.328125 32 32 32h160c4.417969 0 8-3.582031 8-8s-3.582031-8-8-8h-160c-8.835938 0-16-7.164062-16-16s7.164062-16 16-16h209.652344l-58.371094 96h-215.28125c-2.121094 0-4.15625.84375-5.65625 2.34375-1.503906 1.5-2.34375 3.535156-2.34375 5.65625v272c0 3.402344 2.148438 6.429688 5.359375 7.554688l160 56c1.710937.59375 3.570313.59375 5.28125 0l160-56c3.210937-1.125 5.359375-4.152344 5.359375-7.554688v-272c0-2.121094-.839844-4.15625-2.339844-5.65625-1.503906-1.5-3.539062-2.34375-5.660156-2.34375h-61.652344l74.613282-83.351562c6.4375-5.179688 10.417968-12.816407 10.976562-21.0625zm-31.9375 120.414062v16h-16c-4.417969 0-8 3.582031-8 8s3.582031 8 8 8h16v226.320312l-152 53.203126-152-53.203126v-226.320312h16c4.417969 0 8-3.582031 8-8s-3.582031-8-8-8h-16v-16h197.550781l-36.386719 59.84375c-2.148437 3.535156-1.253906 8.121094 2.070313 10.585938 3.320313 2.460937 7.96875 1.988281 10.726563-1.09375l62.066406-69.335938zm10.625-111.578125c-.40625.308594-.777344.652344-1.117188 1.03125l-84.632812 94.546875h-2.867188l58.371094-96h19.621094c4.417969 0 8-3.582031 8-8s-3.582031-8-8-8h-9.890625l2.203125-3.625c2.445312-2.664062 5.859375-4.234375 9.476562-4.359375 3.808594-.144531 7.507813 1.296875 10.21875 3.976563 2.78125 2.773437 4.226563 6.613281 3.960938 10.53125-.265625 3.917968-2.214844 7.527343-5.34375 9.898437zm0 0"/><path d="m152 168h-16c-4.417969 0-8 3.582031-8 8s3.582031 8 8 8h16c4.417969 0 8-3.582031 8-8s-3.582031-8-8-8zm0 0"/><path d="m200 168h-16c-4.417969 0-8 3.582031-8 8s3.582031 8 8 8h16c4.417969 0 8-3.582031 8-8s-3.582031-8-8-8zm0 0"/><path d="m256 176c0-2.121094-.839844-4.15625-2.339844-5.65625-1.503906-1.5-3.539062-2.34375-5.660156-2.34375h-16c-4.417969 0-8 3.582031-8 8s3.582031 8 8 8h16c2.121094.003906 4.15625-.839844 5.660156-2.339844 1.5-1.5 2.339844-3.539062 2.339844-5.660156zm0 0"/><path d="m328 184h16c4.417969 0 8-3.582031 8-8s-3.582031-8-8-8h-16c-4.417969 0-8 3.582031-8 8s3.582031 8 8 8zm0 0"/><path d="m432 72h-16c-4.417969 0-8 3.582031-8 8s3.582031 8 8 8h16c17.667969.019531 31.984375 14.335938 32 32v16c-.015625 17.667969-14.332031 31.984375-32 32-4.417969 0-8 3.582031-8 8s3.582031 8 8 8c26.5-.027344 47.972656-21.5 48-48v-16c-.027344-26.496094-21.5-47.96875-48-48zm0 0"/><path d="m8 248c2.121094.003906 4.15625-.839844 5.660156-2.339844 1.5-1.5 2.339844-3.539062 2.339844-5.660156v-24c.019531-17.664062 14.335938-31.980469 32-32 4.417969 0 8-3.582031 8-8s-3.582031-8-8-8c-26.496094.03125-47.96875 21.503906-48 48v24c0 2.121094.839844 4.160156 2.34375 5.660156 1.5 1.5 3.535156 2.34375 5.65625 2.339844zm0 0"/></symbol><symbol id="mandala" viewBox="0 0 512 512"><title>mandala</title><path d="m497.098 248.979c-13.715-5.152-17.729-14.933-22.812-27.315-3.518-8.57-7.462-18.147-15.295-26.546 13.381-18.366 20.359-40.671 19.716-63.578-.071-2.527-1.41-4.849-3.563-6.175-4.209-2.593-8.684-4.916-13.299-6.903-3.806-1.638-8.217.119-9.854 3.922-1.638 3.805.118 8.217 3.923 9.855 2.675 1.152 5.292 2.434 7.819 3.829-.327 17.862-6.056 35.125-16.395 49.587-6.489-3.977-14.656-7.298-25.108-9.583v-8.661c0-4.535-2.438-8.772-6.391-11.075l-7.502-4.332c3.247-10.198 4.453-18.935 4.251-26.544 3.962-.386 7.954-.504 11.932-.345 4.121.164 7.628-3.055 7.794-7.194s-3.055-7.628-7.194-7.794c-4.971-.199-9.96-.023-14.907.504-3.359-10.973-9.676-19.171-15.336-26.497-8.184-10.592-14.647-18.959-12.248-33.416.512-3.083-.941-6.16-3.647-7.723-2.704-1.562-6.097-1.284-8.512.699-11.323 9.303-21.802 7.888-35.067 6.098-9.179-1.239-19.443-2.612-30.632-.028-9.208-20.77-25.037-37.965-45.205-48.864-2.224-1.2-4.904-1.2-7.13 0-20.161 10.885-35.988 28.07-45.198 48.836-4.271-.976-8.698-1.457-13.332-1.457-.031 0-.064 0-.097 0-4.142.006-7.495 3.369-7.489 7.511.006 4.139 3.362 7.489 7.5 7.489h.101c4.489 0 9.41.486 14.825 2.512.101.042.198.09.302.128.055.02.11.032.165.051 5.906 2.294 12.399 6.442 19.564 13.804l-36.993 21.359c-6.844-2.129-13.209-4.179-17.751-6.432-3.499-1.736-7.604-1.606-10.976.345-3.371 1.951-5.525 5.441-5.763 9.318-.321 5.058-1.727 11.592-3.304 18.58l-37.011 21.37c-2.696-9.462-3.19-17.026-2.238-23.477.045-.18.092-.359.125-.544.047-.267.078-.534.096-.799 1.922-10.499 7.736-18.041 14.032-26.19 6.51-8.427 13.667-17.692 15.46-30.513 4.345 1.759 8.932 2.803 13.822 3.159 4.134.303 7.725-2.805 8.024-6.936s-2.805-7.724-6.937-8.024c-6.799-.494-12.298-2.744-17.832-7.293-2.413-1.984-5.808-2.264-8.513-.702-2.707 1.563-4.16 4.64-3.648 7.723 2.399 14.457-4.064 22.823-12.248 33.416-5.662 7.329-11.982 15.53-15.34 26.509-22.6-2.406-45.409 2.706-64.925 14.721-2.154 1.326-3.494 3.648-3.565 6.177-.643 22.906 6.335 45.212 19.716 63.578-7.833 8.399-11.778 17.976-15.295 26.546-5.082 12.382-9.097 22.163-22.812 27.315-2.925 1.099-4.862 3.896-4.862 7.021s1.938 5.922 4.862 7.021c13.715 5.152 17.729 14.933 22.812 27.315 3.518 8.57 7.462 18.147 15.296 26.546-13.381 18.366-20.359 40.671-19.717 63.577.071 2.529 1.411 4.851 3.565 6.177 16.387 10.087 35.097 15.33 54.059 15.33 3.604 0 7.217-.214 10.826-.595.301.979.625 1.951.982 2.917 1.118 3.029 3.985 4.904 7.036 4.904.862 0 1.74-.15 2.598-.466 3.885-1.435 5.872-5.748 4.437-9.634-3.325-9.007-3.283-19.135.193-31.401l37.004 21.366c1.578 6.988 2.984 13.52 3.302 18.561.238 3.895 2.393 7.385 5.764 9.336 1.796 1.039 3.797 1.562 5.805 1.562 1.765 0 3.533-.404 5.169-1.215 4.544-2.253 10.909-4.303 17.753-6.432l37 21.363c-6.827 7.05-13.114 11.258-19.16 13.664-.193.053-.385.108-.576.177-.266.096-.52.209-.768.331-10.046 3.579-19.479 2.316-29.678.939-10.555-1.424-22.162-2.992-34.169 1.871-1.307-9.327-5.36-16.501-9.194-22.106-2.338-3.419-7.004-4.296-10.425-1.957-3.419 2.338-4.295 7.005-1.956 10.424 5.206 7.612 8.306 14.897 6.512 25.708-.512 3.083.941 6.16 3.647 7.723 1.167.674 2.461 1.005 3.75 1.005 1.699 0 3.389-.577 4.762-1.705 11.324-9.303 21.802-7.888 35.067-6.098 9.179 1.238 19.443 2.611 30.632.027 9.208 20.77 25.037 37.966 45.205 48.864 1.112.601 2.339.902 3.565.902s2.453-.301 3.565-.902c20.168-10.898 35.997-28.094 45.205-48.864 11.189 2.585 21.453 1.212 30.632-.027 13.267-1.79 23.742-3.206 35.067 6.098 1.373 1.128 3.063 1.705 4.762 1.705 1.289 0 2.583-.332 3.75-1.005 2.706-1.563 4.159-4.64 3.647-7.723-2.399-14.457 4.064-22.823 12.248-33.416 5.661-7.328 11.981-15.529 15.339-26.506 3.628.386 7.261.602 10.888.602 18.951-.001 37.657-5.241 54.038-15.326 2.154-1.326 3.494-3.648 3.565-6.177.643-22.906-6.335-45.212-19.716-63.578 7.833-8.399 11.778-17.976 15.295-26.546 5.082-12.382 9.097-22.163 22.812-27.315 2.925-1.099 4.862-3.896 4.862-7.021s-1.936-5.923-4.86-7.022zm-174.536 146.912c-26.925-8.346-57.214-17.737-60.717-52.12 11.188-.738 21.811-3.575 31.478-8.124l16.951 29.362c1.389 2.406 3.91 3.751 6.502 3.751 1.272 0 2.563-.324 3.743-1.006 3.587-2.071 4.816-6.658 2.745-10.245l-16.963-29.382c8.011-5.604 15.049-12.507 20.807-20.401 3.253 1.56 6.444 2.823 9.571 3.809 18.988 19.96 12.734 47.605 7.187 72.059-1.47 6.478-2.876 12.679-3.64 18.292-5.238-2.143-11.314-4.027-17.664-5.995zm-66.562 34.732-45.055-26.014c16.914-6.144 34.552-15.11 45.064-31.878 10.559 16.726 28.333 25.764 45.062 31.873zm-59.32-132.206 18.031-10.407c8.119 10.449 20.1 17.747 33.788 19.723v20.854c-21.323-2.188-39.94-13.606-51.819-30.17zm-91.91 44.898v-52.027c13.778 11.577 30.363 22.37 50.147 23.078-9.208 17.513-8.147 37.429-5.073 54.973zm62.79-45.213c-26.781 6.462-47.59-12.775-65.992-29.802-4.877-4.513-9.545-8.832-14.024-12.3 4.478-3.465 9.149-7.788 14.03-12.304.31-.286.981-.906 1.005-.93 20.44-18.901 43.469-39.522 74.494-25.587-4.736 9.59-7.774 20.161-8.721 31.32h-33.902c-4.143 0-7.5 3.358-7.5 7.5s3.357 7.5 7.5 7.5h33.902c.846 9.971 3.36 19.473 7.265 28.225-2.97 2.035-5.644 4.166-8.057 6.378zm80.94-114.688v20.854c-13.393 1.933-25.153 8.961-33.259 19.05l-18.067-10.428c11.897-16.191 30.299-27.32 51.326-29.476zm-4.381-95.178c.031-.017.06-.035.09-.052l11.791-6.808 45.056 26.014c-16.912 6.143-34.546 15.108-45.056 31.873-10.51-16.765-28.144-25.73-45.055-31.873zm96.108 21.879c.763 5.608 2.17 11.814 3.64 18.297 6.234 27.496 13.25 58.43-14.793 78.661-6.092-9.068-13.826-16.943-22.772-23.2l16.963-29.382c2.071-3.587.842-8.174-2.745-10.245-3.59-2.072-8.175-.842-10.245 2.745l-16.951 29.362c-9.666-4.548-20.288-7.385-31.476-8.123.288-2.867.757-5.603 1.417-8.175.004-.016.01-.032.014-.049 7.137-27.726 34.836-36.315 59.277-43.892 6.35-1.97 12.429-3.854 17.671-5.999zm67.003 58.57v52.03c-13.779-11.577-30.365-22.366-50.15-23.076 9.211-17.514 8.15-37.433 5.076-54.979zm-143.73 159.901v-20.854c13.688-1.976 25.669-9.274 33.788-19.723l18.031 10.407c-11.878 16.565-30.495 27.983-51.819 30.17zm-80.471-72.586c0-10.757 2.359-20.968 6.556-30.171l18.029 10.406c-2.501 6.102-3.892 12.773-3.892 19.765 0 6.69 1.277 13.084 3.577 18.969l-18.065 10.427c-3.978-9-6.205-18.94-6.205-29.396zm35.694 0c0-20.556 16.723-37.279 37.277-37.279s37.277 16.723 37.277 37.279-16.722 37.279-37.277 37.279-37.277-16.723-37.277-37.279zm96.103-43.11-18.067 10.428c-8.106-10.09-19.867-17.117-33.259-19.05v-20.854c21.027 2.156 39.429 13.285 51.326 29.476zm7.94 72.506-18.066-10.427c2.3-5.885 3.577-12.279 3.577-18.969 0-6.992-1.39-13.664-3.892-19.765l18.029-10.406c4.198 9.203 6.556 19.414 6.556 30.171.001 10.456-2.226 20.396-6.204 29.396zm-167.854-87.753c-19.769.779-36.487 11.654-50.143 23.088v-52.047l45.06-26.017c-3.137 17.724-4.189 37.485 5.083 54.976zm202.174 116.713c19.77-.779 36.488-11.654 50.145-23.089v52.048l-45.057 26.013c3.136-17.724 4.188-37.485-5.088-54.972zm53.34-46.052c-.31.286-.981.906-1.005.93-20.44 18.901-43.469 39.522-74.494 25.587 4.736-9.59 7.774-20.161 8.721-31.32h33.902c4.143 0 7.5-3.358 7.5-7.5s-3.357-7.5-7.5-7.5h-33.902c-.846-9.971-3.36-19.473-7.265-28.225 2.97-2.034 5.645-4.165 8.057-6.377 26.784-6.459 47.59 12.775 65.992 29.801 4.877 4.513 9.545 8.832 14.024 12.3-4.478 3.465-9.149 7.788-14.03 12.304zm-77.03-203.646c10.551 1.424 22.149 2.991 34.149-1.863 1.794 12.819 8.95 22.083 15.46 30.509 6.296 8.15 12.11 15.692 14.032 26.192.019.271.049.543.098.817.035.199.081.393.131.585.94 6.437.441 13.984-2.247 23.416l-37.012-21.37c-1.578-6.988-2.984-13.52-3.302-18.561-.238-3.895-2.393-7.385-5.764-9.336-3.374-1.952-7.477-2.081-10.974-.346-4.544 2.253-10.908 4.304-17.753 6.433l-37-21.363c6.807-7.03 13.078-11.234 19.108-13.643.21-.056.419-.122.627-.197.266-.097.521-.209.768-.332 10.048-3.581 19.48-2.318 29.679-.941zm-112.117-9.61c7.353-16.159 19.427-29.723 34.719-38.917 15.315 9.215 27.403 22.808 34.752 38.993-6.688 3.631-13.647 9.045-20.852 16.956l-7.511-4.337c-3.94-2.274-8.837-2.273-12.777.001l-7.487 4.323c-6.806-7.51-13.659-13.133-20.844-17.019zm-49.507 55.066c5.241 2.145 11.321 4.03 17.673 5.999 23.947 7.424 51.009 15.83 58.807 42.245-.72 3.237-1.216 6.632-1.49 10.156-9.945 1.043-19.4 3.752-28.085 7.838l-16.951-29.362c-2.07-3.587-6.66-4.816-10.245-2.745-3.587 2.071-4.816 6.658-2.745 10.245l16.963 29.382c-8.01 5.603-15.046 12.504-20.803 20.396-3.26-1.564-6.455-2.821-9.589-3.808-18.968-19.967-12.717-47.605-7.172-72.055 1.468-6.477 2.874-12.678 3.637-18.291zm-72.361 15.35c-.201 7.608 1.005 16.343 4.251 26.539l-7.529 4.347c-3.926 2.288-6.364 6.525-6.364 11.06v8.661c-10.452 2.286-18.62 5.607-25.108 9.583-10.34-14.463-16.068-31.726-16.395-49.589 15.633-8.651 33.445-12.325 51.145-10.601zm-66.509 130.536c10.202-7.964 14.646-18.792 18.688-28.641 3.941-9.603 7.59-18.474 15.859-25.413.153-.11.315-.199.461-.322.149-.125.286-.259.423-.393 5.109-4.042 11.903-7.39 21.435-9.783v42.733c-5.265 4.862-10.221 9.346-14.431 12.146-3.259 2.158-5.204 5.774-5.204 9.673s1.945 7.515 5.191 9.665c4.222 2.808 9.179 7.294 14.443 12.156v42.731c-9.532-2.392-16.326-5.74-21.435-9.783-.137-.134-.274-.268-.423-.393-.211-.178-.431-.339-.655-.49-8.13-6.914-11.755-15.719-15.665-25.245-4.041-9.85-8.485-20.677-18.687-28.641zm66.442 130.55c-17.678 1.702-35.468-1.975-51.078-10.616.326-17.863 6.055-35.126 16.395-49.589 6.489 3.977 14.656 7.298 25.108 9.583v8.661c0 4.535 2.438 8.772 6.391 11.075l7.494 4.327c-3.1 9.659-4.534 18.412-4.31 26.559zm72.429 15.335c-.763-5.608-2.17-11.814-3.64-18.297-6.234-27.496-13.25-58.43 14.793-78.661 6.092 9.068 13.826 16.943 22.772 23.2l-16.963 29.382c-2.071 3.587-.842 8.174 2.745 10.245 1.182.682 2.471 1.006 3.743 1.006 2.592 0 5.113-1.346 6.502-3.751l16.951-29.362c8.683 4.085 18.135 6.794 28.077 7.837.276 3.595.785 6.983 1.496 10.183-7.812 26.395-34.864 34.797-58.805 42.219-6.35 1.97-12.429 3.854-17.671 5.999zm84.227 93.982c-15.313-9.215-27.401-22.808-34.75-38.992 6.688-3.631 13.647-9.045 20.852-16.956l7.511 4.337c1.97 1.137 4.178 1.705 6.388 1.705 2.209 0 4.419-.569 6.39-1.706l7.51-4.335c7.204 7.91 14.164 13.324 20.851 16.955-7.351 16.184-19.439 29.778-34.752 38.992zm127.006-77.171c-6.51 8.426-13.666 17.689-15.46 30.509-12-4.852-23.601-3.287-34.149-1.863-10.2 1.377-19.633 2.639-29.678-.94-.247-.122-.502-.234-.767-.331-.191-.069-.383-.124-.575-.177-6.046-2.405-12.333-6.613-19.16-13.663l37.002-21.362c6.843 2.129 13.207 4.179 17.748 6.429 1.637.812 3.406 1.216 5.171 1.216 2.008 0 4.01-.523 5.805-1.562 3.371-1.951 5.525-5.441 5.763-9.318.321-5.059 1.728-11.595 3.306-18.586l37.008-21.365c2.697 9.464 3.191 17.029 2.238 23.48-.045.179-.092.357-.124.542-.047.267-.078.534-.096.799-1.922 10.501-7.736 18.042-14.032 26.192zm29.583-32.16c.201-7.608-1.005-16.343-4.251-26.54l7.529-4.347c3.926-2.288 6.364-6.525 6.364-11.06v-8.661c10.452-2.286 18.62-5.607 25.108-9.583 10.34 14.463 16.068 31.726 16.395 49.589-15.632 8.652-33.446 12.326-51.145 10.602zm47.82-101.895c-3.91 9.526-7.535 18.331-15.664 25.245-.225.15-.444.312-.656.49-.149.125-.286.259-.423.393-5.109 4.042-11.903 7.39-21.435 9.783v-42.733c5.265-4.862 10.221-9.346 14.431-12.146 3.259-2.158 5.204-5.774 5.204-9.673s-1.945-7.515-5.191-9.665c-4.222-2.808-9.179-7.294-14.443-12.156v-42.731c9.532 2.392 16.326 5.74 21.435 9.783.137.134.274.268.423.393.147.123.309.212.462.322 8.269 6.938 11.917 15.81 15.858 25.412 4.043 9.849 8.486 20.677 18.688 28.641-10.203 7.965-14.646 18.792-18.689 28.642z"/><path d="m256 112.476c4.143 0 7.5-3.358 7.5-7.5v-1.108c0-4.142-3.357-7.5-7.5-7.5s-7.5 3.358-7.5 7.5v1.108c0 4.142 3.357 7.5 7.5 7.5z"/><path d="m129.393 173.746-.959-.554c-3.586-2.073-8.175-.845-10.246 2.741-2.073 3.586-.846 8.173 2.74 10.246l.959.554c1.182.683 2.473 1.008 3.746 1.008 2.591 0 5.111-1.344 6.5-3.749 2.073-3.586.845-8.174-2.74-10.246z"/><path d="m121.89 324.271-.959.554c-3.587 2.071-4.816 6.658-2.745 10.245 1.39 2.406 3.91 3.751 6.502 3.751 1.272 0 2.563-.325 3.743-1.006l.959-.554c3.587-2.071 4.816-6.658 2.745-10.245-2.073-3.588-6.66-4.814-10.245-2.745z"/><path d="m256 398.529c-4.143 0-7.5 3.358-7.5 7.5v1.108c0 4.142 3.357 7.5 7.5 7.5s7.5-3.358 7.5-7.5v-1.108c0-4.142-3.357-7.5-7.5-7.5z"/><path d="m382.61 337.261.959.554c1.181.682 2.471 1.006 3.743 1.006 2.592 0 5.112-1.345 6.502-3.751 2.071-3.587.842-8.174-2.745-10.245l-.959-.554c-3.587-2.071-8.174-.843-10.245 2.745-2.071 3.587-.842 8.174 2.745 10.245z"/><path d="m386.367 187.741c1.273 0 2.564-.325 3.746-1.008l.959-.554c3.586-2.073 4.813-6.66 2.74-10.246s-6.661-4.813-10.246-2.741l-.959.554c-3.586 2.073-4.813 6.66-2.74 10.247 1.39 2.403 3.909 3.748 6.5 3.748z"/></symbol><symbol id="embroidery" viewBox="0 0 512 512"><title>embroidery</title><path d="M286.824,229.428a24.172,24.172,0,0,0-4.323-.532c-.063-.8-.156-1.595-.3-2.392a24,24,0,0,0-13.683-17.566l-18.586-8.448a23.9,23.9,0,0,0-22.925,1.67,24.143,24.143,0,0,0-3.433,2.681,23.828,23.828,0,0,0-24-4.225l-19.116,7.169a23.9,23.9,0,0,0-15.029,17.391,24.172,24.172,0,0,0-.532,4.323,23.821,23.821,0,0,0-19.958,13.983l-8.449,18.587a23.908,23.908,0,0,0,1.67,22.924,24.15,24.15,0,0,0,2.682,3.433,23.755,23.755,0,0,0-1.479,1.9,24.008,24.008,0,0,0-2.746,22.1l7.169,19.116a23.9,23.9,0,0,0,17.391,15.029,24.166,24.166,0,0,0,4.322.529,23.831,23.831,0,0,0,13.984,19.961l18.586,8.448a24,24,0,0,0,26.359-4.351,23.977,23.977,0,0,0,24,4.225l19.116-7.169a23.9,23.9,0,0,0,15.029-17.391,24.194,24.194,0,0,0,.532-4.322,23.838,23.838,0,0,0,19.958-13.984l8.449-18.587a23.908,23.908,0,0,0-1.67-22.924,24.15,24.15,0,0,0-2.682-3.433,23.755,23.755,0,0,0,1.479-1.9,24.008,24.008,0,0,0,2.746-22.1l-7.169-19.116A23.9,23.9,0,0,0,286.824,229.428Zm-10.737,17.8a8,8,0,0,1,13.147,2.848L296.4,269.19a8,8,0,0,1-7.49,10.81H254.987a31.826,31.826,0,0,0-3.431-8.242ZM232,223.088v-.75a8,8,0,0,1,11.311-7.283L261.9,223.5a8,8,0,0,1,2.346,12.939l-24,24A31.826,31.826,0,0,0,232,257.013Zm-50.935,5.475a7.869,7.869,0,0,1,5.009-5.8l19.117-7.168A8,8,0,0,1,216,223.088v33.925a31.826,31.826,0,0,0-8.242,3.431l-24-24-.529-.529A7.87,7.87,0,0,1,181.065,228.563ZM151.056,268.69,159.5,250.1a8,8,0,0,1,12.935-2.351l24,24A31.826,31.826,0,0,0,193.013,280H158.339a8,8,0,0,1-7.283-11.31Zm20.857,60.083a8,8,0,0,1-13.147-2.848L151.6,306.81a8,8,0,0,1,7.49-10.81h33.925a31.826,31.826,0,0,0,3.431,8.242ZM216,352.912v.75a8,8,0,0,1-11.311,7.283L186.1,352.5a8,8,0,0,1-2.346-12.939l24-24A31.826,31.826,0,0,0,216,318.987ZM224,304a16,16,0,1,1,16-16A16.019,16.019,0,0,1,224,304Zm42.935,43.437a7.869,7.869,0,0,1-5.009,5.8L242.81,360.4a8,8,0,0,1-10.81-7.49V318.987a31.826,31.826,0,0,0,8.242-3.431l24,24,.01.009.52.521A7.867,7.867,0,0,1,266.935,347.437Zm30.009-40.127L288.5,325.9a8,8,0,0,1-12.935,2.351l-24-24A31.826,31.826,0,0,0,254.987,296h34.674a8,8,0,0,1,7.283,11.31Z"/><path d="M489.94,208.239c-9.951-2.488-22.813-7.866-27.575-19.362-4.264-10.3-1.327-24.391,8.5-40.761,12.6-21,15.591-50.672,8.034-71.7l3.45-3.45a24.027,24.027,0,0,0,0-33.94l-1.373-1.373a24.028,24.028,0,0,0-33.942,0l-10.28,10.281c-12.656-.445-21.6-3.52-25.966-8.974-4.543-5.679-3.1-12.658-3-13.1a8,8,0,0,0-15.54-3.806c-1.347,5.388-1.636,17.058,5.826,26.616,5.34,6.839,13.483,11.4,24.285,13.66l-4.007,4.007c-.184.184-.355.376-.518.573h0l-.022.027-.014.017L363.039,133.44A207.393,207.393,0,0,0,256,82.462V64h17.376a24,24,0,1,0,0-16H256V40a8,8,0,0,0-16,0v8H208V40a8,8,0,0,0-16,0v8H176a8,8,0,0,0-16,0H144a8,8,0,0,0,0,16h16a8,8,0,0,0,16,0h16V82.462C92.447,97.9,16,184.189,16,288c0,114.691,93.309,208,208,208s208-93.309,208-208a206.994,206.994,0,0,0-46.135-130.466l67.178-55.323.014-.012.029-.024h0c.2-.162.388-.333.572-.517l12.285-12.285c3.08,15.83-.067,35.955-8.8,50.512-12.713,21.189-15.928,39.733-9.556,55.116,5.786,13.97,19.091,23.915,38.476,28.761a8,8,0,0,0,3.88-15.522ZM296,48a8,8,0,1,1-8,8A8.009,8.009,0,0,1,296,48ZM208,64h32V80.609Q232.079,80,224,80t-16,.609ZM416,288c0,105.869-86.131,192-192,192S32,393.869,32,288,118.131,96,224,96a191.247,191.247,0,0,1,128.866,49.793l-10.181,12.363A175.32,175.32,0,0,0,224,112c-97.047,0-176,78.953-176,176s78.953,176,176,176,176-78.953,176-176a175.149,175.149,0,0,0-38.826-110.133L373.52,167.7A191.078,191.078,0,0,1,416,288ZM306.343,213.657a8,8,0,0,0,10.743.518l31.743-26.141A159.227,159.227,0,0,1,384,288c0,88.224-71.775,160-160,160S64,376.224,64,288s71.775-160,160-160a159.4,159.4,0,0,1,108.5,42.523l-26.676,32.392A8,8,0,0,0,306.343,213.657Zm69-68.185c-.265-.281-.523-.568-.789-.847l50.019-60.737,11.538,11.538ZM448,84.687,435.313,72l7.84-7.839A21.932,21.932,0,0,1,459.389,73.3Zm8.193-33.566,2.151-2.151a8.007,8.007,0,0,1,11.312,0l1.373,1.373a8.01,8.01,0,0,1,0,11.314l-.266.266A37.965,37.965,0,0,0,456.193,51.121Z"/></symbol><symbol id="splash" viewBox="0 0 512.001 512.001"><title>splash</title><g> <g> <path d="M502.746,260.818c-8.906-11.337-23.882-13.116-35.932-13.399c-10.495-0.248-21.06,0.089-31.278,0.415 c-13.965,0.444-28.406,0.905-42.362-0.172c-1.799-0.138-3.693-0.197-5.526-0.254c-4.871-0.151-12.233-0.38-13.356-2.738 c-2.575-5.41-1.49-8.561-0.449-10.46c5.246-9.577,27.617-17.694,59.841-21.712c14.135-1.763,24.479-6.23,31.624-13.655 c6.371-6.622,9.241-14.245,8.083-21.464c-0.86-5.37-3.997-10.421-8.831-14.224c-9.361-7.364-23.247-8.753-37.141-3.716 c-7.176,2.602-13.539,6.402-19.693,10.077c-3.063,1.829-5.956,3.557-8.927,5.135c-9.739,5.174-20.202,8.656-31.098,10.348 c-3.936,0.611-8.904,1.098-12.396-0.577c-0.228-0.111-1.381-0.783-1.689-3.083c-0.641-4.781,1.56-24.146,56.757-72.597 c7.442-6.532,13.683-13.623,18.552-21.077c5.694-8.72,8.644-16.705,9.018-24.41c0.53-10.934-4.591-21.132-13.049-25.981 c-7.348-4.211-16.999-4.342-25.822-0.344c-7.369,3.338-13.117,8.884-17.767,13.869c-21.111,22.633-35.457,50.58-45.595,72.399 c-3.696,7.956-8.408,15.31-13.395,23.097l-1.542,2.409c-6.454,10.106-17.317,16.996-23.718,15.05 c-5.698-1.733-8.894-11.981-8.552-27.413c0.09-4.044,1.792-8.367,3.594-12.944c1.869-4.748,3.802-9.658,4.452-15.226 c1.595-13.645-5.612-29.646-20.036-31.704c-8.29-1.186-17.215,2.987-22.716,10.626c-4.891,6.793-6.422,14.939-7.148,20.474 c-1.295,9.867-1.116,19.845,0.531,29.658c0.457,2.724,1.022,5.458,1.569,8.102c1.946,9.418,3.785,18.313,0.718,25.558 c-2.928,6.913-11.014,12.279-20.601,13.671c-15.728,2.288-33.675-5.091-48.002-19.729c-0.839-0.858-1.686-1.756-2.515-2.67 c-2.785-3.067-7.528-3.295-10.595-0.512c-3.066,2.784-3.296,7.527-0.513,10.594c0.955,1.051,1.931,2.087,2.9,3.079 c15.442,15.777,34.771,24.642,53.054,24.641c2.635,0,5.25-0.184,7.826-0.558c14.892-2.163,27.253-10.848,32.257-22.666 c4.891-11.551,2.377-23.713,0.159-34.443c-0.543-2.625-1.055-5.103-1.466-7.55c-1.401-8.345-1.554-16.83-0.451-25.222 c0.819-6.242,2.232-10.584,4.448-13.662c2.209-3.066,5.673-4.929,8.426-4.541c4.998,0.713,8.004,8.71,7.256,15.113 c-0.425,3.631-1.924,7.44-3.512,11.473c-2.101,5.338-4.482,11.387-4.632,18.104c-0.365,16.432,2.666,37.074,19.182,42.098 c14.901,4.532,31.766-7.298,40.726-21.328l1.53-2.392c5.037-7.863,10.245-15.994,14.368-24.867 c9.67-20.81,23.293-47.402,42.96-68.487c3.821-4.097,8.04-8.196,12.988-10.438c4.379-1.983,9.041-2.101,12.172-0.306 c3.507,2.011,5.779,7.045,5.527,12.242c-0.241,4.969-2.398,10.508-6.595,16.934c-4.124,6.313-9.47,12.372-15.887,18.005 c-44.151,38.754-64.339,66.864-61.719,85.938c1.325,9.649,8.032,13.568,10.056,14.539c7.209,3.458,15.107,2.819,21.188,1.876 c12.556-1.95,24.612-5.961,35.834-11.924c3.303-1.754,6.494-3.66,9.58-5.503c5.805-3.467,11.288-6.741,17.115-8.854 c6.941-2.516,16.561-3.466,22.756,1.404c1.835,1.444,3.035,3.196,3.294,4.81c0.383,2.386-1.143,5.634-4.081,8.688 c-4.667,4.85-12.083,7.85-22.672,9.171c-39.2,4.889-63.134,14.777-71.14,29.39c-2.787,5.088-5.039,13.402,0.062,24.115 c5.056,10.619,17.412,11.002,26.433,11.283c1.74,0.054,3.384,0.105,4.839,0.218c14.77,1.139,29.627,0.666,43.992,0.208 c10.016-0.319,20.369-0.65,30.449-0.411c8.758,0.206,19.457,1.264,24.49,7.67c3.818,4.86,3.868,12.345,3.237,17.767 c-0.372,3.204-0.908,5.434-1.737,7.229c-2.215,4.798-7.848,8.383-14.351,9.133c-6.01,0.693-12.814-0.677-20.8-4.195 c-3.296-1.451-6.542-3.144-9.283-4.608c-3.652-1.951-8.197-0.573-10.149,3.081c-1.952,3.653-0.572,8.197,3.081,10.149 c2.989,1.597,6.552,3.453,10.306,5.106c8.585,3.781,16.399,5.643,23.741,5.643c1.63,0,3.238-0.092,4.824-0.275 c11.764-1.357,21.823-8.158,26.251-17.747c1.952-4.229,2.639-8.52,3.019-11.785C510.478,277.622,508.344,267.944,502.746,260.818z "/> </g> </g><g> <g> <path d="M419.641,281.7c-37.596-15.444-64.128-16.871-78.859-4.238c-4.569,3.919-7.466,9.639-8.157,16.107 c-1.432,13.422,5.901,24.527,12.372,34.325c0.783,1.186,1.562,2.365,2.319,3.541c4.072,6.319,10.251,12.426,16.226,18.332 c4.641,4.587,9.024,8.92,12.005,12.903l0.694,0.925c4.43,5.891,16.196,21.539,14.178,32.197c-0.407,2.148-1.523,5.358-6.496,8.417 c-0.086,0.054-0.959,0.499-4.736-0.321c-2.212-0.48-3.83-1.052-5.094-1.801c-2.67-1.583-4.943-4.694-6.402-8.762 c-7.499-20.912-17.468-42.167-27.35-58.315c-13.475-22.019-25.672-33.144-37.287-34.011c-5.884-0.439-11.193,1.272-14.959,4.816 c-8.474,7.979-9.543,19.832-9.526,29.266c0.022,13.103,1.406,26.245,4.113,39.063c0.743,3.522,1.589,7.028,2.407,10.419 c0.88,3.65,1.791,7.425,2.541,11.102c1.419,6.947,2.374,14.071,2.838,21.176c0.26,3.967,3.558,7.011,7.476,7.011 c0.165,0,0.331-0.005,0.497-0.017c4.134-0.27,7.265-3.84,6.995-7.973c-0.509-7.782-1.556-15.587-3.109-23.198 c-0.804-3.936-1.745-7.841-2.656-11.618c-0.793-3.288-1.613-6.688-2.313-10.001c-2.493-11.809-3.768-23.917-3.789-35.989 c-0.011-6.411,0.525-14.287,4.81-18.32c0.928-0.873,2.796-0.837,3.56-0.779c4.639,0.346,13.803,7.59,25.609,26.883 c9.233,15.088,18.962,35.854,26.025,55.549c1.863,5.198,5.61,12.298,12.874,16.603c2.689,1.594,5.726,2.724,9.559,3.556 c4.556,0.989,10.468,1.705,15.778-1.562c7.426-4.568,11.925-10.759,13.373-18.4c3.252-17.17-10.377-35.295-16.926-44.006 l-0.674-0.896c-3.65-4.879-8.642-9.814-13.47-14.585c-5.399-5.337-10.982-10.855-14.163-15.79 c-0.787-1.222-1.598-2.448-2.411-3.681c-5.571-8.436-10.833-16.405-9.973-24.467c0.283-2.651,1.351-4.894,3.007-6.313 c9.677-8.3,32.783-5.849,63.395,6.727c3.832,1.576,8.214-0.256,9.787-4.088C425.303,287.656,423.473,283.274,419.641,281.7z"/> </g> </g><g> <g> <path d="M298.043,439.156c-4.109-0.496-7.845,2.448-8.333,6.561c-1.579,13.273-4.705,23.716-9.556,31.926 c-5.718,9.677-14.208,16.478-23.295,18.66c-9.455,2.272-19.916-1.134-24.877-8.095c-1.978-2.774-3.338-6.206-4.771-10.504 c-2.183-6.543-3.388-11.531-3.908-16.171c-2.058-18.378,6.225-37.088,13.532-53.595c0.736-1.665,1.563-3.507,2.455-5.493 c5.328-11.869,13.38-29.806,18.036-45.446c2.457-8.253,9.932-33.37-5.895-40.632c-11.427-5.242-22.947,3.698-27.868,7.515 c-10.325,8.01-17.761,18.415-24.951,28.478c-5.142,7.196-9.999,13.993-15.774,19.869c-10.165,10.341-23.942,18.464-40.95,24.144 c-5.221,1.743-12.109,3.733-18.845,3.691c-6.163-0.043-11.594-1.838-15.292-5.055c-2.265-1.969-3.635-4.438-3.575-6.444 c0.045-1.552,0.891-3.531,2.583-6.053c5.779-8.608,15.474-15.914,28.816-21.715c6.991-3.04,14.179-5.425,21.788-7.95 c5.359-1.778,10.901-3.618,16.34-5.7c14.006-5.362,25.266-11.608,34.425-19.096c11.437-9.35,19.669-20.817,23.804-33.16 c3.444-10.278,2.686-19.56-2.133-26.137c-2.241-3.059-5.367-5.564-9.291-7.446c-11.467-5.499-26.056-4.05-41.088,4.083 c-4.392,2.377-8.531,5.071-12.534,7.676c-5.953,3.875-11.576,7.534-17.63,9.965c-7.002,2.812-14.676,3.951-22.191,3.296 c-4.852-0.423-13.828-2.087-19.442-8.47c-4.186-4.761-5.211-11.926-2.333-16.31c1.728-2.632,5.029-4.877,9.814-6.673 c8.988-3.375,19.818-4.405,33.122-3.147c3.225,0.305,6.437,0.713,9.838,1.146c12.403,1.577,25.228,3.209,38.039-0.487l0.868-0.249 c6.336-1.811,16.938-4.842,18.762-15.026c1.441-8.05-1.342-16.733-7.637-23.825c-4.955-5.58-11.241-9.379-17.256-12.792 c-5.641-3.201-11.443-6.343-17.053-9.381c-22.298-12.073-45.353-24.557-62.094-42.989c-3.549-3.907-6.305-8.843-9.217-16.506 c-5.355-14.095,5.494-24.292,10.054-26.412c3.267-1.517,8.26-0.374,12.148,2.781c4.312,3.499,7.451,8.857,10.819,14.986 c0.863,1.569,1.723,3.143,2.583,4.718c3.086,5.648,6.276,11.489,9.628,17.172c2.104,3.568,6.703,4.754,10.27,2.65 c3.567-2.104,4.754-6.702,2.649-10.27c-3.226-5.47-6.356-11.201-9.384-16.743c-0.866-1.586-1.732-3.171-2.602-4.752 c-3.194-5.813-7.57-13.775-14.513-19.409c-8.433-6.844-19.396-8.701-27.924-4.735c-11.988,5.575-25.921,23.84-17.75,45.342 c2.403,6.326,5.955,14.459,12.135,21.263c18.457,20.321,42.655,33.423,66.055,46.094c5.547,3.003,11.282,6.109,16.794,9.236 c5.124,2.908,10.008,5.838,13.441,9.705c3.11,3.504,4.677,7.773,4.099,11.159c-0.921,1.249-5.962,2.69-8.13,3.31l-0.906,0.26 c-9.829,2.838-20.59,1.469-31.985,0.019c-3.37-0.429-6.853-0.872-10.319-1.2c-15.617-1.476-28.638-0.155-39.807,4.038 c-7.934,2.979-13.522,7.063-17.08,12.484c-6.609,10.067-5.092,24.554,3.608,34.448c6.721,7.643,17.162,12.44,29.401,13.508 c9.854,0.86,19.911-0.633,29.087-4.32c7.415-2.978,13.925-7.215,20.22-11.312c3.926-2.555,7.633-4.968,11.491-7.055 c6.192-3.35,17.995-8.293,27.462-3.751c1.651,0.792,2.924,1.756,3.68,2.788c2.602,3.55,0.874,9.927,0.01,12.505 c-3.235,9.657-9.832,18.756-19.076,26.313c-7.899,6.457-17.808,11.92-30.295,16.701c-5.122,1.961-10.5,3.746-15.701,5.472 c-7.589,2.519-15.435,5.122-23.044,8.431c-16.013,6.963-27.886,16.084-35.289,27.11c-2.116,3.151-4.949,8.028-5.124,13.973 c-0.193,6.578,2.987,13.213,8.725,18.203c6.399,5.565,15.288,8.668,25.031,8.737c0.113,0,0.227,0.001,0.34,0.001 c8.847,0,17.121-2.381,23.362-4.465c19.276-6.437,35.053-15.81,46.895-27.856c6.6-6.714,12.03-14.314,17.281-21.663 c6.866-9.607,13.35-18.683,21.942-25.348c7.65-5.936,10.973-6.395,12.419-5.733c0.04,0.019,3.527,3.387-2.228,22.719 c-4.371,14.685-11.869,31.387-17.344,43.582c-0.902,2.012-1.74,3.877-2.487,5.564c-7.677,17.342-17.231,38.926-14.721,61.337 c0.823,7.342,2.883,14.142,4.585,19.246c1.61,4.827,3.547,9.92,6.786,14.464c6.776,9.507,18.757,15.087,31.139,15.087 c3.152,0,6.332-0.362,9.457-1.113c13.013-3.125,24.933-12.461,32.706-25.614c5.933-10.04,9.706-22.4,11.536-37.785 C305.094,443.376,302.157,439.645,298.043,439.156z"/> </g> </g><g> <g> <path d="M296.624,9.802c-5.289-7.2-14.096-10.778-23.555-9.571c-10.117,1.291-18.712,7.879-22.429,17.194 c-2.779,6.964-8.409,24.487-0.688,36.777c2.909,4.632,8.926,10.33,21.06,11.169c0.561,0.039,1.12,0.058,1.68,0.058 c9.681,0,18.936-5.74,22.91-14.389C305.56,29.363,301.655,16.65,296.624,9.802z M281.971,44.78 c-1.576,3.432-5.944,5.903-9.924,5.629c-7.072-0.489-8.82-3.272-9.394-4.186c-2.734-4.351-1.981-13.471,1.917-23.237 c2.03-5.087,6.702-7.404,10.396-7.875c0.557-0.071,1.105-0.105,1.643-0.105c3.304,0,6.192,1.318,7.926,3.678 C288.22,23.701,287.285,33.212,281.971,44.78z"/> </g> </g><g> <g> <path d="M72.872,261.8c-2.953-7.285-9.624-13.231-18.304-16.312c-13.119-4.657-28.437-2.704-39.022,4.976 c-8.686,6.302-13.316,15.811-13.035,26.775c0.25,9.772,5.677,19.608,14.162,25.669c4.796,3.425,11.995,6.731,21.919,6.731 c4.836,0,10.32-0.785,16.487-2.724c12.138-3.817,19.365-15.364,19.828-31.68C75.06,269.873,74.414,265.604,72.872,261.8z M59.914,274.808c-0.159,5.601-1.583,15.36-9.334,17.797c-10.229,3.217-18.939,2.559-25.186-1.903 c-5.664-4.045-7.788-9.988-7.888-13.848c-0.154-6.046,2.15-10.84,6.85-14.249c6.497-4.715,16.859-5.94,25.196-2.981 c4.574,1.624,8.096,4.543,9.419,7.81C59.706,269.248,60.005,271.591,59.914,274.808z"/> </g> </g><g> <g> <path d="M459.368,439.834c-5.338-9.6-14.349-16.511-24.722-18.96c-7.89-1.862-15.63-0.733-21.238,3.1 c-6.938,4.741-11.335,13.049-12.38,23.393c-0.929,9.193,0.979,19.078,5.235,27.118c6.123,11.568,18.135,18.999,31.345,19.393 c0.358,0.011,0.714,0.016,1.068,0.016c10.614,0,19.81-4.764,24.745-12.875C467.914,473.633,470.857,460.493,459.368,439.834z M450.608,473.223c-2.258,3.712-6.936,5.823-12.55,5.662c-6.137-0.184-14.228-3.279-18.536-11.418 c-5.788-10.934-4.624-26.343,2.35-31.109c1.326-0.906,3.201-1.373,5.343-1.373c1.256,0,2.603,0.161,3.985,0.487 c6.185,1.46,11.816,5.816,15.061,11.652C452.4,458.161,453.984,467.674,450.608,473.223z"/> </g> </g></symbol><symbol id="delivery-truck" viewBox="0 0 512 512"><title>delivery-truck</title><path d="m512 234.836-99.35-127.169h-56.316v-42.667h-356.334v328.667h60.409c4.666 30.165 30.806 53.333 62.258 53.333s57.592-23.168 62.258-53.333h142.151c4.665 30.165 30.806 53.333 62.257 53.333s57.592-23.168 62.258-53.333h60.409zm-89.667 149.164c0 18.196-14.804 33-33 33s-33-14.804-33-33 14.804-33 33-33 33 14.804 33 33zm-266.666 0c0 18.196-14.804 33-33 33s-33-14.804-33-33 14.804-33 33-33 33 14.804 33 33zm-33-63c-27.624 0-51.135 17.879-59.614 42.667h-33.053v-98h205.314l29.905-104.667h-235.219v-66h296.333v268.667h-144.052c-8.479-24.788-31.99-42.667-59.614-42.667zm-92.666-85.333v-44.667h195.447l-12.762 44.667zm359.332 85.333c-12.093 0-23.396 3.432-33 9.363v-75.363h125.667v108.667h-33.053c-8.478-24.788-31.99-42.667-59.614-42.667zm-33-96v-87.333h41.684l68.23 87.333z"/></symbol><symbol id="customer-service" viewBox="0 0 510 510"><title>customer-service</title><path d="m439.846 370.059-.571-.676c-27.873-33.008-66.032-55.475-108.497-64.687 22.249-15.918 39.452-38.45 48.727-64.696h34.163c19.142 0 34.714-15.572 34.714-34.714v-10.286c0-107.523-87.477-195-195-195s-195 87.477-195 195v10.286c0 19.142 15.573 34.714 34.714 34.714h32.924c9.427 26.677 27.048 49.512 49.829 65.47-41.109 9.651-77.992 31.782-105.125 63.912l-.576.683c-31.254 37.012-47.102 79.047-47.102 124.935v15h463.908v-15c0-45.888-15.848-87.922-47.108-124.941zm-187.083-70.337c-41.585 0-77.564-24.447-94.331-59.722h74.951v-30h-83.966c-.676-4.791-1.034-9.683-1.034-14.658 0-57.556 46.825-104.381 104.38-104.381s104.38 46.825 104.38 104.381-46.824 104.38-104.38 104.38zm165.62-94.436c0 2.6-2.115 4.714-4.714 4.714h-27.328c.525-4.816.803-9.705.803-14.658 0-5.188-.306-10.305-.881-15.342h31.431c.448 4.942.689 9.943.689 15zm-165-175.286c75.387 0 139.127 50.82 158.762 120h-32.881c-18.643-51.854-68.308-89.039-126.501-89.039s-107.858 37.185-126.5 89.039h-31.642c19.635-69.18 83.375-120 158.762-120zm-160.286 180c-2.6 0-4.714-2.114-4.714-4.714v-10.286c0-5.057.242-10.058.689-15h30.192c-.575 5.037-.881 10.154-.881 15.342 0 4.953.278 9.842.803 14.658zm-39.36 270c3.059-32.836 16.252-63.247 39.333-90.579l.576-.683c31.523-37.329 78.758-58.738 129.594-58.738h63.521c50.836 0 98.071 21.409 129.598 58.744l.571.676c23.081 27.333 36.274 57.744 39.333 90.58z"/></symbol><symbol id="gift-box" viewBox="0 0 512 512"><title>gift-box</title><path d="M499.521,92.982H381.486c12.951-19.021,14.201-44.702,1.13-65.343C365.075-0.063,328.253-8.333,300.552,9.208 c-7.01,4.44-18.711,14.821-39.292,53.532c-1.84,3.47-3.6,6.87-5.26,10.14c-1.66-3.27-3.42-6.67-5.26-10.14 c-20.581-38.712-32.281-49.092-39.292-53.532c-27.701-17.541-64.523-9.27-82.064,18.431c-8.5,13.421-11.261,29.351-7.78,44.852 c1.67,7.45,4.69,14.371,8.87,20.491H12.479v145.216H30.02V512h451.96V238.198h17.541L499.521,92.982L499.521,92.982z M316.593,34.56c4.78-3.03,10.2-4.58,15.721-4.58c2.16,0,4.35,0.24,6.51,0.72c7.68,1.73,14.231,6.34,18.451,12.991 c8.69,13.731,4.59,31.981-9.14,40.672c-8.26,5.24-38.542,8.16-68.693,8.61C292.742,65.91,308.333,39.79,316.593,34.56z M154.726,43.689c4.22-6.65,10.771-11.26,18.451-12.991c2.16-0.48,4.35-0.72,6.51-0.72c5.52,0,10.94,1.55,15.721,4.58 c8.26,5.23,23.851,31.351,37.152,58.413c-15.071-0.23-30.181-1.07-42.552-2.51c-12.371-1.44-22.011-3.48-26.141-6.1 c-6.65-4.21-11.271-10.76-12.991-18.441C149.145,58.24,150.515,50.34,154.726,43.689z M195.297,481.999H60.021V238.198h135.276 V481.999z M195.297,208.197H42.481v-85.214h152.817V208.197z M286.702,481.999h-61.403V122.983h61.403V481.999z M451.979,481.999 L451.979,481.999H316.703V238.198h135.276V481.999z M469.52,208.197H316.703v-85.214H469.52V208.197z"/></symbol></svg>