<svg id="Capa_1" enable-background="new 0 0 512 512" height="512" viewBox="0 0 512 512" width="512" xmlns="http://www.w3.org/2000/svg"><g><path d="m497.098 248.979c-13.715-5.152-17.729-14.933-22.812-27.315-3.518-8.57-7.462-18.147-15.295-26.546 13.381-18.366 20.359-40.671 19.716-63.578-.071-2.527-1.41-4.849-3.563-6.175-4.209-2.593-8.684-4.916-13.299-6.903-3.806-1.638-8.217.119-9.854 3.922-1.638 3.805.118 8.217 3.923 9.855 2.675 1.152 5.292 2.434 7.819 3.829-.327 17.862-6.056 35.125-16.395 49.587-6.489-3.977-14.656-7.298-25.108-9.583v-8.661c0-4.535-2.438-8.772-6.391-11.075l-7.502-4.332c3.247-10.198 4.453-18.935 4.251-26.544 3.962-.386 7.954-.504 11.932-.345 4.121.164 7.628-3.055 7.794-7.194s-3.055-7.628-7.194-7.794c-4.971-.199-9.96-.023-14.907.504-3.359-10.973-9.676-19.171-15.336-26.497-8.184-10.592-14.647-18.959-12.248-33.416.512-3.083-.941-6.16-3.647-7.723-2.704-1.562-6.097-1.284-8.512.699-11.323 9.303-21.802 7.888-35.067 6.098-9.179-1.239-19.443-2.612-30.632-.028-9.208-20.77-25.037-37.965-45.205-48.864-2.224-1.2-4.904-1.2-7.13 0-20.161 10.885-35.988 28.07-45.198 48.836-4.271-.976-8.698-1.457-13.332-1.457-.031 0-.064 0-.097 0-4.142.006-7.495 3.369-7.489 7.511.006 4.139 3.362 7.489 7.5 7.489h.101c4.489 0 9.41.486 14.825 2.512.101.042.198.09.302.128.055.02.11.032.165.051 5.906 2.294 12.399 6.442 19.564 13.804l-36.993 21.359c-6.844-2.129-13.209-4.179-17.751-6.432-3.499-1.736-7.604-1.606-10.976.345-3.371 1.951-5.525 5.441-5.763 9.318-.321 5.058-1.727 11.592-3.304 18.58l-37.011 21.37c-2.696-9.462-3.19-17.026-2.238-23.477.045-.18.092-.359.125-.544.047-.267.078-.534.096-.799 1.922-10.499 7.736-18.041 14.032-26.19 6.51-8.427 13.667-17.692 15.46-30.513 4.345 1.759 8.932 2.803 13.822 3.159 4.134.303 7.725-2.805 8.024-6.936s-2.805-7.724-6.937-8.024c-6.799-.494-12.298-2.744-17.832-7.293-2.413-1.984-5.808-2.264-8.513-.702-2.707 1.563-4.16 4.64-3.648 7.723 2.399 14.457-4.064 22.823-12.248 33.416-5.662 7.329-11.982 15.53-15.34 26.509-22.6-2.406-45.409 2.706-64.925 14.721-2.154 1.326-3.494 3.648-3.565 6.177-.643 22.906 6.335 45.212 19.716 63.578-7.833 8.399-11.778 17.976-15.295 26.546-5.082 12.382-9.097 22.163-22.812 27.315-2.925 1.099-4.862 3.896-4.862 7.021s1.938 5.922 4.862 7.021c13.715 5.152 17.729 14.933 22.812 27.315 3.518 8.57 7.462 18.147 15.296 26.546-13.381 18.366-20.359 40.671-19.717 63.577.071 2.529 1.411 4.851 3.565 6.177 16.387 10.087 35.097 15.33 54.059 15.33 3.604 0 7.217-.214 10.826-.595.301.979.625 1.951.982 2.917 1.118 3.029 3.985 4.904 7.036 4.904.862 0 1.74-.15 2.598-.466 3.885-1.435 5.872-5.748 4.437-9.634-3.325-9.007-3.283-19.135.193-31.401l37.004 21.366c1.578 6.988 2.984 13.52 3.302 18.561.238 3.895 2.393 7.385 5.764 9.336 1.796 1.039 3.797 1.562 5.805 1.562 1.765 0 3.533-.404 5.169-1.215 4.544-2.253 10.909-4.303 17.753-6.432l37 21.363c-6.827 7.05-13.114 11.258-19.16 13.664-.193.053-.385.108-.576.177-.266.096-.52.209-.768.331-10.046 3.579-19.479 2.316-29.678.939-10.555-1.424-22.162-2.992-34.169 1.871-1.307-9.327-5.36-16.501-9.194-22.106-2.338-3.419-7.004-4.296-10.425-1.957-3.419 2.338-4.295 7.005-1.956 10.424 5.206 7.612 8.306 14.897 6.512 25.708-.512 3.083.941 6.16 3.647 7.723 1.167.674 2.461 1.005 3.75 1.005 1.699 0 3.389-.577 4.762-1.705 11.324-9.303 21.802-7.888 35.067-6.098 9.179 1.238 19.443 2.611 30.632.027 9.208 20.77 25.037 37.966 45.205 48.864 1.112.601 2.339.902 3.565.902s2.453-.301 3.565-.902c20.168-10.898 35.997-28.094 45.205-48.864 11.189 2.585 21.453 1.212 30.632-.027 13.267-1.79 23.742-3.206 35.067 6.098 1.373 1.128 3.063 1.705 4.762 1.705 1.289 0 2.583-.332 3.75-1.005 2.706-1.563 4.159-4.64 3.647-7.723-2.399-14.457 4.064-22.823 12.248-33.416 5.661-7.328 11.981-15.529 15.339-26.506 3.628.386 7.261.602 10.888.602 18.951-.001 37.657-5.241 54.038-15.326 2.154-1.326 3.494-3.648 3.565-6.177.643-22.906-6.335-45.212-19.716-63.578 7.833-8.399 11.778-17.976 15.295-26.546 5.082-12.382 9.097-22.163 22.812-27.315 2.925-1.099 4.862-3.896 4.862-7.021s-1.936-5.923-4.86-7.022zm-174.536 146.912c-26.925-8.346-57.214-17.737-60.717-52.12 11.188-.738 21.811-3.575 31.478-8.124l16.951 29.362c1.389 2.406 3.91 3.751 6.502 3.751 1.272 0 2.563-.324 3.743-1.006 3.587-2.071 4.816-6.658 2.745-10.245l-16.963-29.382c8.011-5.604 15.049-12.507 20.807-20.401 3.253 1.56 6.444 2.823 9.571 3.809 18.988 19.96 12.734 47.605 7.187 72.059-1.47 6.478-2.876 12.679-3.64 18.292-5.238-2.143-11.314-4.027-17.664-5.995zm-66.562 34.732-45.055-26.014c16.914-6.144 34.552-15.11 45.064-31.878 10.559 16.726 28.333 25.764 45.062 31.873zm-59.32-132.206 18.031-10.407c8.119 10.449 20.1 17.747 33.788 19.723v20.854c-21.323-2.188-39.94-13.606-51.819-30.17zm-91.91 44.898v-52.027c13.778 11.577 30.363 22.37 50.147 23.078-9.208 17.513-8.147 37.429-5.073 54.973zm62.79-45.213c-26.781 6.462-47.59-12.775-65.992-29.802-4.877-4.513-9.545-8.832-14.024-12.3 4.478-3.465 9.149-7.788 14.03-12.304.31-.286.981-.906 1.005-.93 20.44-18.901 43.469-39.522 74.494-25.587-4.736 9.59-7.774 20.161-8.721 31.32h-33.902c-4.143 0-7.5 3.358-7.5 7.5s3.357 7.5 7.5 7.5h33.902c.846 9.971 3.36 19.473 7.265 28.225-2.97 2.035-5.644 4.166-8.057 6.378zm80.94-114.688v20.854c-13.393 1.933-25.153 8.961-33.259 19.05l-18.067-10.428c11.897-16.191 30.299-27.32 51.326-29.476zm-4.381-95.178c.031-.017.06-.035.09-.052l11.791-6.808 45.056 26.014c-16.912 6.143-34.546 15.108-45.056 31.873-10.51-16.765-28.144-25.73-45.055-31.873zm96.108 21.879c.763 5.608 2.17 11.814 3.64 18.297 6.234 27.496 13.25 58.43-14.793 78.661-6.092-9.068-13.826-16.943-22.772-23.2l16.963-29.382c2.071-3.587.842-8.174-2.745-10.245-3.59-2.072-8.175-.842-10.245 2.745l-16.951 29.362c-9.666-4.548-20.288-7.385-31.476-8.123.288-2.867.757-5.603 1.417-8.175.004-.016.01-.032.014-.049 7.137-27.726 34.836-36.315 59.277-43.892 6.35-1.97 12.429-3.854 17.671-5.999zm67.003 58.57v52.03c-13.779-11.577-30.365-22.366-50.15-23.076 9.211-17.514 8.15-37.433 5.076-54.979zm-143.73 159.901v-20.854c13.688-1.976 25.669-9.274 33.788-19.723l18.031 10.407c-11.878 16.565-30.495 27.983-51.819 30.17zm-80.471-72.586c0-10.757 2.359-20.968 6.556-30.171l18.029 10.406c-2.501 6.102-3.892 12.773-3.892 19.765 0 6.69 1.277 13.084 3.577 18.969l-18.065 10.427c-3.978-9-6.205-18.94-6.205-29.396zm35.694 0c0-20.556 16.723-37.279 37.277-37.279s37.277 16.723 37.277 37.279-16.722 37.279-37.277 37.279-37.277-16.723-37.277-37.279zm96.103-43.11-18.067 10.428c-8.106-10.09-19.867-17.117-33.259-19.05v-20.854c21.027 2.156 39.429 13.285 51.326 29.476zm7.94 72.506-18.066-10.427c2.3-5.885 3.577-12.279 3.577-18.969 0-6.992-1.39-13.664-3.892-19.765l18.029-10.406c4.198 9.203 6.556 19.414 6.556 30.171.001 10.456-2.226 20.396-6.204 29.396zm-167.854-87.753c-19.769.779-36.487 11.654-50.143 23.088v-52.047l45.06-26.017c-3.137 17.724-4.189 37.485 5.083 54.976zm202.174 116.713c19.77-.779 36.488-11.654 50.145-23.089v52.048l-45.057 26.013c3.136-17.724 4.188-37.485-5.088-54.972zm53.34-46.052c-.31.286-.981.906-1.005.93-20.44 18.901-43.469 39.522-74.494 25.587 4.736-9.59 7.774-20.161 8.721-31.32h33.902c4.143 0 7.5-3.358 7.5-7.5s-3.357-7.5-7.5-7.5h-33.902c-.846-9.971-3.36-19.473-7.265-28.225 2.97-2.034 5.645-4.165 8.057-6.377 26.784-6.459 47.59 12.775 65.992 29.801 4.877 4.513 9.545 8.832 14.024 12.3-4.478 3.465-9.149 7.788-14.03 12.304zm-77.03-203.646c10.551 1.424 22.149 2.991 34.149-1.863 1.794 12.819 8.95 22.083 15.46 30.509 6.296 8.15 12.11 15.692 14.032 26.192.019.271.049.543.098.817.035.199.081.393.131.585.94 6.437.441 13.984-2.247 23.416l-37.012-21.37c-1.578-6.988-2.984-13.52-3.302-18.561-.238-3.895-2.393-7.385-5.764-9.336-3.374-1.952-7.477-2.081-10.974-.346-4.544 2.253-10.908 4.304-17.753 6.433l-37-21.363c6.807-7.03 13.078-11.234 19.108-13.643.21-.056.419-.122.627-.197.266-.097.521-.209.768-.332 10.048-3.581 19.48-2.318 29.679-.941zm-112.117-9.61c7.353-16.159 19.427-29.723 34.719-38.917 15.315 9.215 27.403 22.808 34.752 38.993-6.688 3.631-13.647 9.045-20.852 16.956l-7.511-4.337c-3.94-2.274-8.837-2.273-12.777.001l-7.487 4.323c-6.806-7.51-13.659-13.133-20.844-17.019zm-49.507 55.066c5.241 2.145 11.321 4.03 17.673 5.999 23.947 7.424 51.009 15.83 58.807 42.245-.72 3.237-1.216 6.632-1.49 10.156-9.945 1.043-19.4 3.752-28.085 7.838l-16.951-29.362c-2.07-3.587-6.66-4.816-10.245-2.745-3.587 2.071-4.816 6.658-2.745 10.245l16.963 29.382c-8.01 5.603-15.046 12.504-20.803 20.396-3.26-1.564-6.455-2.821-9.589-3.808-18.968-19.967-12.717-47.605-7.172-72.055 1.468-6.477 2.874-12.678 3.637-18.291zm-72.361 15.35c-.201 7.608 1.005 16.343 4.251 26.539l-7.529 4.347c-3.926 2.288-6.364 6.525-6.364 11.06v8.661c-10.452 2.286-18.62 5.607-25.108 9.583-10.34-14.463-16.068-31.726-16.395-49.589 15.633-8.651 33.445-12.325 51.145-10.601zm-66.509 130.536c10.202-7.964 14.646-18.792 18.688-28.641 3.941-9.603 7.59-18.474 15.859-25.413.153-.11.315-.199.461-.322.149-.125.286-.259.423-.393 5.109-4.042 11.903-7.39 21.435-9.783v42.733c-5.265 4.862-10.221 9.346-14.431 12.146-3.259 2.158-5.204 5.774-5.204 9.673s1.945 7.515 5.191 9.665c4.222 2.808 9.179 7.294 14.443 12.156v42.731c-9.532-2.392-16.326-5.74-21.435-9.783-.137-.134-.274-.268-.423-.393-.211-.178-.431-.339-.655-.49-8.13-6.914-11.755-15.719-15.665-25.245-4.041-9.85-8.485-20.677-18.687-28.641zm66.442 130.55c-17.678 1.702-35.468-1.975-51.078-10.616.326-17.863 6.055-35.126 16.395-49.589 6.489 3.977 14.656 7.298 25.108 9.583v8.661c0 4.535 2.438 8.772 6.391 11.075l7.494 4.327c-3.1 9.659-4.534 18.412-4.31 26.559zm72.429 15.335c-.763-5.608-2.17-11.814-3.64-18.297-6.234-27.496-13.25-58.43 14.793-78.661 6.092 9.068 13.826 16.943 22.772 23.2l-16.963 29.382c-2.071 3.587-.842 8.174 2.745 10.245 1.182.682 2.471 1.006 3.743 1.006 2.592 0 5.113-1.346 6.502-3.751l16.951-29.362c8.683 4.085 18.135 6.794 28.077 7.837.276 3.595.785 6.983 1.496 10.183-7.812 26.395-34.864 34.797-58.805 42.219-6.35 1.97-12.429 3.854-17.671 5.999zm84.227 93.982c-15.313-9.215-27.401-22.808-34.75-38.992 6.688-3.631 13.647-9.045 20.852-16.956l7.511 4.337c1.97 1.137 4.178 1.705 6.388 1.705 2.209 0 4.419-.569 6.39-1.706l7.51-4.335c7.204 7.91 14.164 13.324 20.851 16.955-7.351 16.184-19.439 29.778-34.752 38.992zm127.006-77.171c-6.51 8.426-13.666 17.689-15.46 30.509-12-4.852-23.601-3.287-34.149-1.863-10.2 1.377-19.633 2.639-29.678-.94-.247-.122-.502-.234-.767-.331-.191-.069-.383-.124-.575-.177-6.046-2.405-12.333-6.613-19.16-13.663l37.002-21.362c6.843 2.129 13.207 4.179 17.748 6.429 1.637.812 3.406 1.216 5.171 1.216 2.008 0 4.01-.523 5.805-1.562 3.371-1.951 5.525-5.441 5.763-9.318.321-5.059 1.728-11.595 3.306-18.586l37.008-21.365c2.697 9.464 3.191 17.029 2.238 23.48-.045.179-.092.357-.124.542-.047.267-.078.534-.096.799-1.922 10.501-7.736 18.042-14.032 26.192zm29.583-32.16c.201-7.608-1.005-16.343-4.251-26.54l7.529-4.347c3.926-2.288 6.364-6.525 6.364-11.06v-8.661c10.452-2.286 18.62-5.607 25.108-9.583 10.34 14.463 16.068 31.726 16.395 49.589-15.632 8.652-33.446 12.326-51.145 10.602zm47.82-101.895c-3.91 9.526-7.535 18.331-15.664 25.245-.225.15-.444.312-.656.49-.149.125-.286.259-.423.393-5.109 4.042-11.903 7.39-21.435 9.783v-42.733c5.265-4.862 10.221-9.346 14.431-12.146 3.259-2.158 5.204-5.774 5.204-9.673s-1.945-7.515-5.191-9.665c-4.222-2.808-9.179-7.294-14.443-12.156v-42.731c9.532 2.392 16.326 5.74 21.435 9.783.137.134.274.268.423.393.147.123.309.212.462.322 8.269 6.938 11.917 15.81 15.858 25.412 4.043 9.849 8.486 20.677 18.688 28.641-10.203 7.965-14.646 18.792-18.689 28.642z"/><path d="m256 112.476c4.143 0 7.5-3.358 7.5-7.5v-1.108c0-4.142-3.357-7.5-7.5-7.5s-7.5 3.358-7.5 7.5v1.108c0 4.142 3.357 7.5 7.5 7.5z"/><path d="m129.393 173.746-.959-.554c-3.586-2.073-8.175-.845-10.246 2.741-2.073 3.586-.846 8.173 2.74 10.246l.959.554c1.182.683 2.473 1.008 3.746 1.008 2.591 0 5.111-1.344 6.5-3.749 2.073-3.586.845-8.174-2.74-10.246z"/><path d="m121.89 324.271-.959.554c-3.587 2.071-4.816 6.658-2.745 10.245 1.39 2.406 3.91 3.751 6.502 3.751 1.272 0 2.563-.325 3.743-1.006l.959-.554c3.587-2.071 4.816-6.658 2.745-10.245-2.073-3.588-6.66-4.814-10.245-2.745z"/><path d="m256 398.529c-4.143 0-7.5 3.358-7.5 7.5v1.108c0 4.142 3.357 7.5 7.5 7.5s7.5-3.358 7.5-7.5v-1.108c0-4.142-3.357-7.5-7.5-7.5z"/><path d="m382.61 337.261.959.554c1.181.682 2.471 1.006 3.743 1.006 2.592 0 5.112-1.345 6.502-3.751 2.071-3.587.842-8.174-2.745-10.245l-.959-.554c-3.587-2.071-8.174-.843-10.245 2.745-2.071 3.587-.842 8.174 2.745 10.245z"/><path d="m386.367 187.741c1.273 0 2.564-.325 3.746-1.008l.959-.554c3.586-2.073 4.813-6.66 2.74-10.246s-6.661-4.813-10.246-2.741l-.959.554c-3.586 2.073-4.813 6.66-2.74 10.247 1.39 2.403 3.909 3.748 6.5 3.748z"/></g></svg>