<svg id="Layer_1" data-name="Layer 1" xmlns="http://www.w3.org/2000/svg" viewBox="0 0 480 480"><defs><style>.cls-1{fill:#fff;}</style></defs><path class="cls-1" d="M423.94,31.59a29.67,29.67,0,0,0-52.18-21.17,7.52,7.52,0,0,0-.75,1L363.38,24H144a32,32,0,0,0,0,64H304a8,8,0,0,0,0-16H144a16,16,0,0,1,0-32H353.65l-58.37,96H80a8,8,0,0,0-8,8V416a8,8,0,0,0,5.36,7.55l160,56a8,8,0,0,0,5.28,0l160-56A8,8,0,0,0,408,416V144a8,8,0,0,0-8-8H338.35L413,52.65A29.61,29.61,0,0,0,423.94,31.59ZM392,152v16H376a8,8,0,0,0,0,16h16V410.32l-152,53.2L88,410.32V184h16a8,8,0,0,0,0-16H88V152H285.55l-36.39,59.84a8,8,0,0,0,12.8,9.5L324,152ZM402.63,40.42a7.82,7.82,0,0,0-1.12,1L316.88,136H314l58.37-96H392a8,8,0,0,0,0-16h-9.89l2.2-3.62A13.46,13.46,0,0,1,393.79,16,13.77,13.77,0,0,1,404,20a13.58,13.58,0,0,1-1.38,20.43Z" transform="translate(0 0)"/><path class="cls-1" d="M152,168H136a8,8,0,0,0,0,16h16a8,8,0,0,0,0-16Z" transform="translate(0 0)"/><path class="cls-1" d="M200,168H184a8,8,0,0,0,0,16h16a8,8,0,0,0,0-16Z" transform="translate(0 0)"/><path class="cls-1" d="M256,176a8,8,0,0,0-8-8H232a8,8,0,0,0,0,16h16a8,8,0,0,0,8-8Z" transform="translate(0 0)"/><path class="cls-1" d="M328,184h16a8,8,0,0,0,0-16H328a8,8,0,0,0,0,16Z" transform="translate(0 0)"/><path class="cls-1" d="M432,72H416a8,8,0,0,0,0,16h16a32,32,0,0,1,32,32v16a32,32,0,0,1-32,32,8,8,0,0,0,0,16,48.05,48.05,0,0,0,48-48V120A48.05,48.05,0,0,0,432,72Z" transform="translate(0 0)"/><path class="cls-1" d="M8,248a8,8,0,0,0,8-8V216a32,32,0,0,1,32-32,8,8,0,0,0,0-16A48.05,48.05,0,0,0,0,216v24a8,8,0,0,0,8,8Z" transform="translate(0 0)"/></svg>